<?xml version="1.0" encoding="UTF-8"?>
<svg version="1.1" xmlns="http://www.w3.org/2000/svg" width="500" height="500">
<path d="M0 0 C2.41728036 0.94697581 3.72586072 1.47428435 4.94921875 3.8203125 C5.19285156 4.58085938 5.43648438 5.34140625 5.6875 6.125 C7.82177656 12.01802273 10.84846307 17.24985795 14.00268555 22.64111328 C17 27.80708394 17 27.80708394 17 30 C17.66 30 18.32 30 19 30 C20.5078125 31.8984375 20.5078125 31.8984375 22.125 34.375 C22.66382813 35.18710938 23.20265625 35.99921875 23.7578125 36.8359375 C25 39 25 39 25 41 C25.66 41 26.32 41 27 41 C28.3046875 42.87890625 28.3046875 42.87890625 29.875 45.5625 C33.45711119 51.40619834 37.59380961 56.62673819 41.99951172 61.87133789 C42.75385498 62.78387329 42.75385498 62.78387329 43.5234375 63.71484375 C43.97638184 64.25230225 44.42932617 64.78976074 44.89599609 65.34350586 C46.13631778 67.20453696 46.5800291 68.81668593 47 71 C47.66 71 48.32 71 49 71 C50.42041016 72.6965332 50.42041016 72.6965332 52.0390625 75.05078125 C52.90917969 76.31631836 52.90917969 76.31631836 53.796875 77.60742188 C54.40015625 78.50009766 55.0034375 79.39277344 55.625 80.3125 C56.54152344 81.63411133 56.54152344 81.63411133 57.4765625 82.98242188 C58.0540625 83.82998047 58.6315625 84.67753906 59.2265625 85.55078125 C59.75846191 86.33106689 60.29036133 87.11135254 60.83837891 87.9152832 C62 90 62 90 62 93 C62.66 93 63.32 93 64 93 C67.75115416 99.36184753 70.92503016 105.87301755 73.75 112.6875 C74.19001343 113.73732056 74.19001343 113.73732056 74.63891602 114.80834961 C82.82092557 134.9219642 81.10039013 156.10951323 73 176 C70.03487492 181.91695363 67.03966125 187.59931421 62 192 C61.34 192 60.68 192 60 192 C55.54387511 176.48817286 51.16057071 160.95603057 46.78393555 145.42163086 C46.54956284 144.58984818 46.31519012 143.75806549 46.07371521 142.90107727 C45.63246784 141.33494333 45.19134758 139.76877358 44.75038147 138.20256042 C44.35487328 136.7985792 43.95835927 135.39488079 43.56066895 133.99151611 C43.18216036 132.64704009 42.80949208 131.30090808 42.44226074 129.95330811 C41.73886593 126.70842503 41.73886593 126.70842503 40 124 C39.38125 124.928125 38.7625 125.85625 38.125 126.8125 C36.0625 129.90625 36.0625 129.90625 34 133 C34.30139045 140.65840866 36.42786577 147.73711163 38.5625 155.0625 C38.89185547 156.21427734 39.22121094 157.36605469 39.56054688 158.55273438 C40.3672669 161.37040866 41.18054281 164.18600893 42 167 C41.67 167.33 41.34 167.66 41 168 C38.70045943 167.94979916 36.40208687 167.84505191 34.10546875 167.71875 C19.26477964 166.61713661 19.26477964 166.61713661 5.39257812 170.51806641 C1.47142626 174.31388909 -0.84989674 178.89277501 -3.0234375 183.84960938 C-4.37620852 186.82841116 -6.17714816 189.39649467 -8.0625 192.0625 C-8.67351562 192.98804688 -9.28453125 193.91359375 -9.9140625 194.8671875 C-12.55364998 198.83151177 -15.24130202 202.76153352 -17.9375 206.6875 C-18.4229126 207.39592041 -18.9083252 208.10434082 -19.40844727 208.83422852 C-22.87804024 213.87804024 -22.87804024 213.87804024 -24 215 C-36.21896859 214.73437025 -47.10621504 204.99628556 -55.24609375 196.71484375 C-60 191.4444165 -60 191.4444165 -60 189 C-60.66 189 -61.32 189 -62 189 C-74.06043533 169.30827184 -79.62135618 148.41602905 -75 125.25 C-71.43799496 112.43014225 -65.04965396 100.20865484 -58 89 C-57.43200684 88.07767578 -57.43200684 88.07767578 -56.85253906 87.13671875 C-55.6403045 85.16841475 -54.41630313 83.20799657 -53.1875 81.25 C-52.80215088 80.62834961 -52.41680176 80.00669922 -52.01977539 79.36621094 C-51.06745009 77.87473404 -50.03993736 76.43176712 -49 75 C-48.34 75 -47.68 75 -47 75 C-46.7306665 74.26209229 -46.46133301 73.52418457 -46.18383789 72.76391602 C-45.0417429 70.0974575 -43.78996587 68.09166582 -42.05859375 65.77734375 C-41.47875732 64.99673584 -40.8989209 64.21612793 -40.30151367 63.41186523 C-39.68638916 62.59532471 -39.07126465 61.77878418 -38.4375 60.9375 C-37.81141846 60.09711182 -37.18533691 59.25672363 -36.5402832 58.39086914 C-34.69950277 55.9226951 -32.8513436 53.46025728 -31 51 C-30.49791016 50.33226562 -29.99582031 49.66453125 -29.47851562 48.9765625 C-29.02669922 48.37585938 -28.57488281 47.77515625 -28.109375 47.15625 C-27.69373291 46.60332275 -27.27809082 46.05039551 -26.84985352 45.48071289 C-25.76126713 44.03543784 -24.66791367 42.59375684 -23.57421875 41.15234375 C-21.97874716 39.0967062 -21.97874716 39.0967062 -21 37 C-20.34 37 -19.68 37 -19 37 C-19 36.01 -19 35.02 -19 34 C-18.34 34 -17.68 34 -17 34 C-16.72414062 33.25363281 -16.44828125 32.50726563 -16.1640625 31.73828125 C-15.09849044 29.23168388 -13.96952634 27.37440624 -12.375 25.1875 C-9.41856143 20.8659898 -7.02619913 16.36120614 -4.6875 11.6875 C-4.33800293 10.99358154 -3.98850586 10.29966309 -3.62841797 9.5847168 C-2.06590716 6.41699731 -0.77081723 3.44336218 0 0 Z " fill="#164754" transform="translate(248,119)"/>
<path d="M0 0 C2.68944703 1.61750779 4.90216172 3.60988388 7.1875 5.75 C7.77724609 6.2759375 8.36699219 6.801875 8.97460938 7.34375 C10.67445243 8.87152885 12.34165228 10.42738516 14 12 C14.50740723 12.47373047 15.01481445 12.94746094 15.53759766 13.43554688 C16.73362746 14.58151423 17.87304975 15.78603476 19 17 C19 17.66 19 18.32 19 19 C19.66 19 20.32 19 21 19 C21 19.66 21 20.32 21 21 C21.66 21 22.32 21 23 21 C24.2890625 22.4609375 24.2890625 22.4609375 25.625 24.375 C26.07101562 25.00148437 26.51703125 25.62796875 26.9765625 26.2734375 C28 28 28 28 28 30 C28.66 30 29.32 30 30 30 C30.99 32.97 30.99 32.97 32 36 C32.66 36 33.32 36 34 36 C38.72298941 44.67312601 42.7282012 53.37740426 45.875 62.75 C46.30341187 64.00623169 46.30341187 64.00623169 46.74047852 65.2878418 C50.46870477 76.77659178 51.39210913 88.02659629 51.375 100.0625 C51.37412384 100.74219849 51.37324768 101.42189697 51.37234497 102.12219238 C51.32426566 113.47157083 50.4006438 124.12324206 47 135 C46.75330566 135.79293457 46.50661133 136.58586914 46.25244141 137.40283203 C42.3462408 149.56264989 37.0884613 160.36730804 30 171 C29.34 171 28.68 171 28 171 C27.87625 171.598125 27.7525 172.19625 27.625 172.8125 C27 175 27 175 25 178 C24.34 178 23.68 178 23 178 C22.7834375 178.54140625 22.566875 179.0828125 22.34375 179.640625 C20.53500003 182.81645344 18.08276201 185.20728081 15.5 187.75 C15.00113281 188.25660156 14.50226563 188.76320313 13.98828125 189.28515625 C10.25341139 193 10.25341139 193 8 193 C8 193.66 8 194.32 8 195 C2.58823529 199 2.58823529 199 0 199 C0 199.66 0 200.32 0 201 C-32.20811182 219.70298136 -64.98863729 227.74436745 -102.01757812 218.49609375 C-115.74449549 214.75616672 -130.7478919 207.82050847 -142 199 C-142 198.34 -142 197.68 -142 197 C-143.65 196.34 -145.3 195.68 -147 195 C-147 194.34 -147 193.68 -147 193 C-147.54527344 192.77570313 -148.09054688 192.55140625 -148.65234375 192.3203125 C-169.38481903 180.6604512 -180.52113341 152.34214877 -187 131 C-187.93347327 127.33461873 -188.58531403 123.75656706 -189 120 C-189.10828125 119.1853125 -189.2165625 118.370625 -189.328125 117.53125 C-190.00437556 111.62295562 -190.15709499 105.69169786 -190.25 99.75 C-190.27143066 98.99323975 -190.29286133 98.23647949 -190.31494141 97.45678711 C-190.34594227 92.23084449 -189.50685626 88.61542694 -187 84 C-182.96872093 81.31248062 -179.73249974 81.44273101 -175 82 C-171.66446917 83.71052863 -170.38197557 85.57515189 -169 89 C-168.74462891 91.87817383 -168.74462891 91.87817383 -168.7265625 95.20703125 C-168.70883789 96.42648438 -168.69111328 97.6459375 -168.67285156 98.90234375 C-168.65706055 100.19269531 -168.64126953 101.48304688 -168.625 102.8125 C-168.3701025 113.53396166 -167.73569548 122.87828456 -164 133 C-163.6390625 134.09570312 -163.278125 135.19140625 -162.90625 136.3203125 C-160.33083997 143.68111278 -156.81816145 149.930463 -152.57421875 156.41796875 C-151 159 -151 159 -151 161 C-150.34 161 -149.68 161 -149 161 C-148.34 162.65 -147.68 164.3 -147 166 C-146.34 166 -145.68 166 -145 166 C-143.5546875 167.50390625 -143.5546875 167.50390625 -141.875 169.5625 C-129.16985525 184.44192726 -111.85627707 194.18902725 -93 199 C-92.37504639 199.17660156 -91.75009277 199.35320312 -91.10620117 199.53515625 C-66.17702675 205.98409385 -40.26058881 199.81869044 -18.4375 187.375 C-15.52409101 185.65362381 -12.91161324 183.92801884 -10.28515625 181.7890625 C-8 180 -8 180 -6 180 C-6 179.34 -6 178.68 -6 178 C-4.56640625 176.625 -4.56640625 176.625 -2.5625 175 C15.21124532 159.69396273 24.73426919 139.82742432 29 117 C29.25910156 115.83476807 29.25910156 115.83476807 29.5234375 114.64599609 C34.01532066 89.7059194 27.08519965 64.57495847 13.28564453 43.82861328 C8.95073717 37.66293608 4.09401724 31.44871806 -1.828125 26.76171875 C-2.54484375 26.18035156 -3.2615625 25.59898437 -4 25 C-4 24.34 -4 23.68 -4 23 C-4.58394531 22.72414062 -5.16789063 22.44828125 -5.76953125 22.1640625 C-9.86934042 20.02440728 -14.0414481 17.46140714 -15.77734375 13.00390625 C-16.33349565 9.69823935 -16.11537799 7.28844498 -14.875 4.1875 C-10.4929754 -0.92486203 -6.45060779 -1.87382884 0 0 Z " fill="#1C4A58" transform="translate(319,158)"/>
<path d="M0 0 C2.41728036 0.94697581 3.72586072 1.47428435 4.94921875 3.8203125 C5.19285156 4.58085938 5.43648438 5.34140625 5.6875 6.125 C7.82177656 12.01802273 10.84846307 17.24985795 14.00268555 22.64111328 C17 27.80708394 17 27.80708394 17 30 C17.66 30 18.32 30 19 30 C20.5078125 31.8984375 20.5078125 31.8984375 22.125 34.375 C22.66382813 35.18710938 23.20265625 35.99921875 23.7578125 36.8359375 C25 39 25 39 25 41 C25.66 41 26.32 41 27 41 C28.65 43.97 30.3 46.94 32 50 C31.01 50 30.02 50 29 50 C28.896875 50.598125 28.79375 51.19625 28.6875 51.8125 C27.87970639 54.38275239 27.08621848 55.31858368 25 57 C23.00679016 57.39872742 23.00679016 57.39872742 20.7121582 57.43237305 C19.85149246 57.45216721 18.99082672 57.47196136 18.1040802 57.49235535 C16.71644722 57.50194023 16.71644722 57.50194023 15.30078125 57.51171875 C14.35059616 57.52966995 13.40041107 57.54762115 12.4214325 57.56611633 C9.38516687 57.62031893 6.34905933 57.65414704 3.3125 57.6875 C1.25453525 57.72066428 -0.80340862 57.7551531 -2.86132812 57.79101562 C-7.90743819 57.8760512 -12.95350056 57.94281498 -18 58 C-24.39087591 77.5918888 -24.39087591 77.5918888 -30.3269043 97.32446289 C-31.59607797 101.72122347 -33.01311082 106.04741822 -34.5 110.375 C-37.4759097 119.13267711 -39.71065767 128.03886003 -42 137 C-32.43 137 -22.86 137 -13 137 C-13.68181474 140.40907369 -14.38314235 143.40654049 -15.453125 146.66796875 C-15.88347046 147.99368896 -15.88347046 147.99368896 -16.32250977 149.34619141 C-16.62858154 150.28382324 -16.93465332 151.22145508 -17.25 152.1875 C-19.49028611 159.13301576 -21.64807274 166.08238713 -23.5625 173.125 C-25.35402346 179.71356817 -27.23183207 186.27061536 -29.1875 192.8125 C-29.43765869 193.65506348 -29.68781738 194.49762695 -29.94555664 195.36572266 C-31.13523094 199.32433475 -32.37108055 203.19404128 -34 207 C-32.02 207.33 -30.04 207.66 -28 208 C-27.67 208.99 -27.34 209.98 -27 211 C-27.66 211 -28.32 211 -29 211 C-29.33 211.66 -29.66 212.32 -30 213 C-30 212.34 -30 211.68 -30 211 C-31.423125 211.2165625 -31.423125 211.2165625 -32.875 211.4375 C-41.99522953 211.40079888 -50.96266682 200.99302248 -57 195 C-60 191.39606127 -60 191.39606127 -60 189 C-60.66 189 -61.32 189 -62 189 C-74.06043533 169.30827184 -79.62135618 148.41602905 -75 125.25 C-71.43799496 112.43014225 -65.04965396 100.20865484 -58 89 C-57.43200684 88.07767578 -57.43200684 88.07767578 -56.85253906 87.13671875 C-55.6403045 85.16841475 -54.41630313 83.20799657 -53.1875 81.25 C-52.80215088 80.62834961 -52.41680176 80.00669922 -52.01977539 79.36621094 C-51.06745009 77.87473404 -50.03993736 76.43176712 -49 75 C-48.34 75 -47.68 75 -47 75 C-46.7306665 74.26209229 -46.46133301 73.52418457 -46.18383789 72.76391602 C-45.0417429 70.0974575 -43.78996587 68.09166582 -42.05859375 65.77734375 C-41.47875732 64.99673584 -40.8989209 64.21612793 -40.30151367 63.41186523 C-39.68638916 62.59532471 -39.07126465 61.77878418 -38.4375 60.9375 C-37.81141846 60.09711182 -37.18533691 59.25672363 -36.5402832 58.39086914 C-34.69950277 55.9226951 -32.8513436 53.46025728 -31 51 C-30.49791016 50.33226562 -29.99582031 49.66453125 -29.47851562 48.9765625 C-29.02669922 48.37585938 -28.57488281 47.77515625 -28.109375 47.15625 C-27.69373291 46.60332275 -27.27809082 46.05039551 -26.84985352 45.48071289 C-25.76126713 44.03543784 -24.66791367 42.59375684 -23.57421875 41.15234375 C-21.97874716 39.0967062 -21.97874716 39.0967062 -21 37 C-20.34 37 -19.68 37 -19 37 C-19 36.01 -19 35.02 -19 34 C-18.34 34 -17.68 34 -17 34 C-16.72414062 33.25363281 -16.44828125 32.50726563 -16.1640625 31.73828125 C-15.09849044 29.23168388 -13.96952634 27.37440624 -12.375 25.1875 C-9.41856143 20.8659898 -7.02619913 16.36120614 -4.6875 11.6875 C-4.33800293 10.99358154 -3.98850586 10.29966309 -3.62841797 9.5847168 C-2.06590716 6.41699731 -0.77081723 3.44336218 0 0 Z " fill="#184955" transform="translate(248,119)"/>
<path d="M0 0 C1.35568336 0.00333092 1.35568336 0.00333092 2.73875427 0.00672913 C3.75973709 0.00680466 4.78071991 0.00688019 5.8326416 0.00695801 C6.94304306 0.01211929 8.05344452 0.01728058 9.19749451 0.02259827 C10.89336952 0.02472069 10.89336952 0.02472069 12.62350464 0.02688599 C16.25105891 0.03250433 19.8785525 0.04505994 23.50608826 0.05775452 C25.95856133 0.06276715 28.41103536 0.06733047 30.86351013 0.07142639 C36.89022371 0.08247971 42.91690165 0.09923568 48.94358826 0.12025452 C48.30737875 1.40167516 47.67013508 2.6825824 47.03245544 3.96327209 C46.5003244 5.0333123 46.5003244 5.0333123 45.95744324 6.12496948 C44.79416696 8.41431834 43.531432 10.61605168 42.19358826 12.80775452 C41.68183044 13.65209045 41.17007263 14.49642639 40.64280701 15.36634827 C39.44797416 17.3028015 38.24113653 19.23187365 37.02561951 21.15541077 C32.77477931 27.92222214 29.02205469 34.72773865 25.58421326 41.92884827 C23.94358826 45.12025452 23.94358826 45.12025452 19.94358826 51.12025452 C30.17358826 51.45025452 40.40358826 51.78025452 50.94358826 52.12025452 C49.48630387 55.76346548 48.68614066 57.75220392 46.43968201 60.65150452 C45.95120789 61.29007385 45.46273376 61.92864319 44.9594574 62.58656311 C44.17816467 63.59324036 44.17816467 63.59324036 43.38108826 64.62025452 C38.86524102 70.53599422 34.54145733 76.52104854 30.33811951 82.66322327 C27.52086881 86.75765962 24.60789487 90.78208895 21.69358826 94.80775452 C21.14122498 95.57087952 20.58886169 96.33400452 20.01976013 97.12025452 C17.78748067 100.20157438 15.55288851 103.28120911 13.31712341 106.36000061 C6.93639612 115.1492825 0.61076124 123.97305171 -5.61891174 132.87025452 C-6.20277649 133.70411682 -6.78664124 134.53797913 -7.38819885 135.39710999 C-10.32721039 139.60673229 -13.22929194 143.83464504 -16.05641174 148.12025452 C-17.38658889 144.12972308 -16.3493729 142.49323354 -14.93141174 138.55775452 C-12.99255637 133.01960883 -11.26649057 127.47419936 -9.74391174 121.80775452 C-7.6241338 113.98977022 -5.30885039 106.23861722 -2.93141174 98.49525452 C-2.5945636 97.39270325 -2.25771545 96.29015198 -1.91065979 95.15419006 C-1.58492981 94.09885071 -1.25919983 93.04351135 -0.92359924 91.95619202 C-0.63597717 91.02339417 -0.3483551 90.09059631 -0.05201721 89.12953186 C1.17422513 85.42314071 2.5728118 81.7756584 3.94358826 78.12025452 C-5.62641174 78.12025452 -15.19641174 78.12025452 -25.05641174 78.12025452 C-24.35972297 72.54674436 -23.54916746 67.71276008 -21.93141174 62.43275452 C-21.71476868 61.70926819 -21.49812561 60.98578186 -21.2749176 60.2403717 C-19.23593522 53.52020482 -16.97620944 46.87631683 -14.72291565 40.22572327 C-12.03009161 32.20442051 -9.68729039 24.10139661 -7.41578674 15.95228577 C-6.4457954 12.48549118 -5.45980335 9.02403733 -4.44703674 5.56947327 C-4.20501526 4.74149231 -3.96299377 3.91351135 -3.71363831 3.06044006 C-2.73103112 0.1597048 -2.73103112 0.1597048 0 0 Z " fill="#B9DF37" transform="translate(231.05641174316406,177.87974548339844)"/>
<path d="M0 0 C1.50961826 0.05021801 3.01939698 0.09583551 4.52929688 0.13671875 C8.21039133 0.24636036 11.88541744 0.41854723 15.5625 0.625 C16.20490486 2.36783456 16.84509984 4.11148377 17.484375 5.85546875 C17.84112305 6.82637451 18.19787109 7.79728027 18.56542969 8.79760742 C22.50994514 19.98307105 22.50994514 19.98307105 21.5625 25.625 C19.32604313 27.82885661 16.72177666 29.27535565 14 30.8125 C13.29552734 31.23724609 12.59105469 31.66199219 11.86523438 32.09960938 C-2.97546711 40.89460574 -22.2643983 45.7603118 -39.375 41.625 C-40.385625 41.295 -41.39625 40.965 -42.4375 40.625 C-39.9375 35.625 -39.9375 35.625 -37.4375 30.625 C-36.7775 30.625 -36.1175 30.625 -35.4375 30.625 C-35.20417969 29.94824219 -34.97085938 29.27148438 -34.73046875 28.57421875 C-33.11663408 24.8931155 -31.00925688 21.7499443 -28.75 18.4375 C-28.34072266 17.82841797 -27.93144531 17.21933594 -27.50976562 16.59179688 C-26.64295037 15.3068864 -25.75750139 14.03439806 -24.85620117 12.7734375 C-23.35023793 10.59352706 -23.35023793 10.59352706 -22.12231445 7.9296875 C-16.95989587 -1.61499069 -9.6301744 -0.55690043 0 0 Z " fill="#1A4A57" transform="translate(277.4375,297.375)"/>
<path d="M0 0 C0.99 0.33 1.98 0.66 3 1 C3.33 2.65 3.66 4.3 4 6 C15.22 6 26.44 6 38 6 C38.33 5.01 38.66 4.02 39 3 C39.5625 4.9375 39.5625 4.9375 40 7 C39.67 7.33 39.34 7.66 39 8 C36.70045943 7.94979916 34.40208687 7.84505191 32.10546875 7.71875 C17.13475838 6.56118668 17.13475838 6.56118668 3.26367188 10.71142578 C-1.12440102 15.12674752 -3.71777755 20.26097129 -6 26 C-6.97918775 22.92443042 -7.1498998 22.31407577 -5.6875 19.25 C-5.130625 18.5075 -4.57375 17.765 -4 17 C-3.34 17 -2.68 17 -2 17 C-2.66 16.34 -3.32 15.68 -4 15 C-4.99 15 -5.98 15 -7 15 C-7 12.69 -7 10.38 -7 8 C-6.01 7.67 -5.02 7.34 -4 7 C-4 7.66 -4 8.32 -4 9 C-3.34 9 -2.68 9 -2 9 C-2.3403125 7.6078125 -2.3403125 7.6078125 -2.6875 6.1875 C-3 3 -3 3 -1.5625 1.125 C-1.046875 0.75375 -0.53125 0.3825 0 0 Z " fill="#1C4A58" transform="translate(250,279)"/>
<path d="M0 0 C0.99 0.66 1.98 1.32 3 2 C-9.32899609 20.13566815 -9.32899609 20.13566815 -15.625 29 C-16.0257373 29.56799316 -16.42647461 30.13598633 -16.83935547 30.72119141 C-18.73165506 33.36911084 -20.66682005 35.7373214 -23 38 C-21.4847851 30.77242492 -19.56831189 23.71264618 -17.5 16.625 C-17.19191406 15.54605469 -16.88382813 14.46710938 -16.56640625 13.35546875 C-16.11587891 11.80666016 -16.11587891 11.80666016 -15.65625 10.2265625 C-15.38619141 9.29408691 -15.11613281 8.36161133 -14.83789062 7.40087891 C-14 5 -14 5 -12 2 C-12 4.97 -12 7.94 -12 11 C-12.66 11 -13.32 11 -14 11 C-14.33 13.97 -14.66 16.94 -15 20 C-12.57869669 18.78934835 -12.15341778 17.78126593 -10.875 15.4375 C-10.25625 14.303125 -9.6375 13.16875 -9 12 C-8.01 12 -7.02 12 -6 12 C-6 10.68 -6 9.36 -6 8 C-5.34 8 -4.68 8 -4 8 C-3.71125 7.05125 -3.4225 6.1025 -3.125 5.125 C-2 2 -2 2 0 0 Z " fill="#AFD84D" transform="translate(237,288)"/>
<path d="M0 0 C0.33 1.32 0.66 2.64 1 4 C0.01 4.33 -0.98 4.66 -2 5 C-1.95875 5.94875 -1.9175 6.8975 -1.875 7.875 C-2 11 -2 11 -4 13 C-4.6837045 14.32467746 -5.34964186 15.65863633 -6 17 C-6.66 17.99 -7.32 18.98 -8 20 C-8.66 20 -9.32 20 -10 20 C-10.09796875 20.72445312 -10.1959375 21.44890625 -10.296875 22.1953125 C-11.21174075 28.11039277 -12.02635498 32.44199542 -16 37 C-18.1875 38.1875 -18.1875 38.1875 -20 39 C-20.33 39.99 -20.66 40.98 -21 42 C-20.23558594 41.98839844 -19.47117188 41.97679687 -18.68359375 41.96484375 C-10.06836707 41.89227265 -1.58412275 42.33511636 7 43 C7 43.33 7 43.66 7 44 C-3.56 44 -14.12 44 -25 44 C-23.02 40.37 -21.04 36.74 -19 33 C-17.873238 30.87593376 -16.74790431 28.75110816 -15.625 26.625 C-12.55554766 20.90805994 -9.23482622 15.40348375 -5.80078125 9.90234375 C-3.7798753 6.64522201 -1.86783951 3.34654579 0 0 Z " fill="#285540" transform="translate(275,186)"/>
<path d="M0 0 C0.66 1.32 1.32 2.64 2 4 C1.57847656 4.48210937 1.15695313 4.96421875 0.72265625 5.4609375 C0.17480469 6.09257812 -0.37304688 6.72421875 -0.9375 7.375 C-1.48277344 8.00148438 -2.02804688 8.62796875 -2.58984375 9.2734375 C-4.06958624 10.95632334 -4.06958624 10.95632334 -5 13 C-5.99 13 -6.98 13 -8 13 C-8 15.31 -8 17.62 -8 20 C-7.01 19.67 -6.02 19.34 -5 19 C-3.07906824 18.98416277 -1.15727672 19.03342391 0.76171875 19.12109375 C2.43911133 19.19360352 2.43911133 19.19360352 4.15039062 19.26757812 C5.31763672 19.32365234 6.48488281 19.37972656 7.6875 19.4375 C8.86634766 19.48970703 10.04519531 19.54191406 11.25976562 19.59570312 C14.17344094 19.72546194 17.08678078 19.86043132 20 20 C20 20.66 20 21.32 20 22 C8.84013939 24.59855382 -2.9722747 25.60088989 -14 22 C-12.33333333 18.66666667 -10.66666667 15.33333333 -9 12 C-8.34 12 -7.68 12 -7 12 C-6.773125 11.319375 -6.54625 10.63875 -6.3125 9.9375 C-4.64427643 6.20385676 -2.44270392 3.27836579 0 0 Z " fill="#3A616C" transform="translate(249,316)"/>
<path d="M0 0 C1.27079593 2.54159187 0.71020908 3.31698792 0 6 C0 7.32 0 8.64 0 10 C-0.66 10 -1.32 10 -2 10 C-2 9.34 -2 8.68 -2 8 C-2.99 8.495 -2.99 8.495 -4 9 C-4 11.31 -4 13.62 -4 16 C-3.01 15.67 -2.02 15.34 -1 15 C-0.67 15.99 -0.34 16.98 0 18 C-0.69609375 18.59941406 -0.69609375 18.59941406 -1.40625 19.2109375 C-3.74567952 21.83706181 -4.24817518 24.69864441 -5.15625 28.0390625 C-5.4346875 28.68617188 -5.713125 29.33328125 -6 30 C-6.99 30.33 -7.98 30.66 -9 31 C-9.33 28.69 -9.66 26.38 -10 24 C-8.68 23.67 -7.36 23.34 -6 23 C-6 21.68 -6 20.36 -6 19 C-7.31602523 19.61754259 -8.62773556 20.24428742 -9.9375 20.875 C-10.66839844 21.22304688 -11.39929688 21.57109375 -12.15234375 21.9296875 C-14.16332459 22.8684977 -14.16332459 22.8684977 -15 25 C-15.66 25 -16.32 25 -17 25 C-15.2449216 21.04862237 -12.71500276 17.66793458 -10.1875 14.1875 C-9.76146484 13.59646484 -9.33542969 13.00542969 -8.89648438 12.39648438 C-8.03797229 11.20547744 -7.17843907 10.01520588 -6.31787109 8.82568359 C-4.20025788 5.89209492 -2.1007997 2.94564554 0 0 Z " fill="#184951" transform="translate(248,278)"/>
<path d="M0 0 C0.99 0 1.98 0 3 0 C2.7215625 1.11375 2.7215625 1.11375 2.4375 2.25 C1.77947289 5.22840916 1.77947289 5.22840916 3 9 C-13.83 9 -30.66 9 -48 9 C-47.67 8.34 -47.34 7.68 -47 7 C-45.71311279 6.98541748 -44.42622559 6.97083496 -43.1003418 6.95581055 C-38.3310145 6.89788852 -33.56216238 6.82065537 -28.79321289 6.73754883 C-26.7281871 6.70427076 -24.66306973 6.67624786 -22.59790039 6.65356445 C-19.63127568 6.62007145 -16.66549252 6.56775855 -13.69921875 6.51171875 C-12.31158577 6.50213387 -12.31158577 6.50213387 -10.8959198 6.49235535 C-10.03525406 6.47256119 -9.17458832 6.45276703 -8.2878418 6.43237305 C-7.53061325 6.42126999 -6.7733847 6.41016693 -5.99320984 6.39872742 C-3.44905633 5.88978765 -2.58011178 5.02682019 -1 3 C-0.67 2.01 -0.34 1.02 0 0 Z " fill="#255239" transform="translate(277,169)"/>
<path d="M0 0 C0.33 0.99 0.66 1.98 1 3 C1.66 3 2.32 3 3 3 C3.66 2.01 4.32 1.02 5 0 C5.66 0.66 6.32 1.32 7 2 C9.58354218 2.16687448 9.58354218 2.16687448 12 2 C12.33 2.66 12.66 3.32 13 4 C10.69 7.3 8.38 10.6 6 14 C1.44262737 13.56179109 -1.57653445 13.14958831 -5 10 C-3.02 10 -1.04 10 1 10 C1.33 9.01 1.66 8.02 2 7 C0.35 6.67 -1.3 6.34 -3 6 C-2.01 4.02 -1.02 2.04 0 0 Z " fill="#275460" transform="translate(218,320)"/>
<path d="M0 0 C0.33 2.31 0.66 4.62 1 7 C1.99 7.33 2.98 7.66 4 8 C3.34 8.66 2.68 9.32 2 10 C1.87625 10.78375 1.7525 11.5675 1.625 12.375 C0.84759736 15.64009111 -0.43239296 16.89923061 -3 19 C-3.66 19 -4.32 19 -5 19 C-6.29060033 16.41879934 -6.13272333 14.50580171 -6.125 11.625 C-6.12757813 10.66851562 -6.13015625 9.71203125 -6.1328125 8.7265625 C-6.01420502 6.29162075 -5.81887879 4.29078749 -5 2 C-1.8 0 -1.8 0 0 0 Z " fill="#134250" transform="translate(313,292)"/>
<path d="M0 0 C0.66 0.66 1.32 1.32 2 2 C-5.75 3.125 -5.75 3.125 -8 2 C-8 3.65 -8 5.3 -8 7 C-7.01 6.34 -6.02 5.68 -5 5 C-4.91909029 6.62418745 -4.86085005 8.24951745 -4.8125 9.875 C-4.77769531 10.77992188 -4.74289062 11.68484375 -4.70703125 12.6171875 C-4.80371094 13.40351563 -4.90039062 14.18984375 -5 15 C-5.99 15.66 -6.98 16.32 -8 17 C-9.9375 16.5 -9.9375 16.5 -12 15 C-13.06042199 10.68761723 -13.52299009 8.30747523 -11.875 4.1875 C-8.30665868 0.02443513 -5.3926133 -1.89470197 0 0 Z " fill="#164250" transform="translate(316,158)"/>
<path d="M0 0 C1.44715727 3.87186448 0.5441918 6.8232328 -0.4375 10.75 C-0.72496094 11.92046875 -1.01242188 13.0909375 -1.30859375 14.296875 C-1.65083984 15.63492188 -1.65083984 15.63492188 -2 17 C-1.01 17 -0.02 17 1 17 C1 18.32 1 19.64 1 21 C-0.32 21 -1.64 21 -3 21 C-3.33 21.99 -3.66 22.98 -4 24 C-1.42788678 25.28605661 0.56906966 25.21043941 3.4453125 25.31640625 C4.52167969 25.35830078 5.59804687 25.40019531 6.70703125 25.44335938 C7.83496094 25.48267578 8.96289062 25.52199219 10.125 25.5625 C11.26066406 25.60568359 12.39632812 25.64886719 13.56640625 25.69335938 C16.37747768 25.7996604 19.18863945 25.90169405 22 26 C22 26.33 22 26.66 22 27 C12.43 27 2.86 27 -7 27 C-5.87445586 17.99564687 -5.87445586 17.99564687 -4.84375 14.5703125 C-4.62589844 13.838125 -4.40804687 13.1059375 -4.18359375 12.3515625 C-3.84521484 11.24941406 -3.84521484 11.24941406 -3.5 10.125 C-3.27441406 9.36703125 -3.04882812 8.6090625 -2.81640625 7.828125 C-1.16012137 2.32024275 -1.16012137 2.32024275 0 0 Z " fill="#ADD453" transform="translate(213,229)"/>
<path d="M0 0 C0.99 0 1.98 0 3 0 C3 10.23 3 20.46 3 31 C2.34 31 1.68 31 1 31 C0.67 32.32 0.34 33.64 0 35 C0 23.45 0 11.9 0 0 Z " fill="#2F5560" transform="translate(367,243)"/>
<path d="M0 0 C1.94140625 0.7578125 1.94140625 0.7578125 4 2 C5.63561644 8.76054795 5.63561644 8.76054795 3.75 12.4375 C2 14 2 14 -1 15 C-1.66 15.66 -2.32 16.32 -3 17 C-3.66 16.67 -4.32 16.34 -5 16 C-4.39363767 10.23955788 -2.24341721 5.27985631 0 0 Z " fill="#2D515C" transform="translate(248,119)"/>
<path d="M0 0 C9.9 0.33 19.8 0.66 30 1 C29.25386143 4.73069283 28.46826597 7.57404607 27 11 C26.67 11 26.34 11 26 11 C25.67 8.69 25.34 6.38 25 4 C24.34926514 3.97494385 23.69853027 3.9498877 23.02807617 3.92407227 C20.08101954 3.80806298 17.1342787 3.68535885 14.1875 3.5625 C13.16333984 3.52318359 12.13917969 3.48386719 11.08398438 3.44335938 C9.60961914 3.38051758 9.60961914 3.38051758 8.10546875 3.31640625 C7.19949951 3.27974854 6.29353027 3.24309082 5.36010742 3.20532227 C3 3 3 3 0 2 C0 1.34 0 0.68 0 0 Z " fill="#32633F" transform="translate(205,255)"/>
<path d="M0 0 C0.66 1.32 1.32 2.64 2 4 C1.57847656 4.48210937 1.15695313 4.96421875 0.72265625 5.4609375 C0.17480469 6.09257812 -0.37304688 6.72421875 -0.9375 7.375 C-1.48277344 8.00148438 -2.02804688 8.62796875 -2.58984375 9.2734375 C-4.06958624 10.95632334 -4.06958624 10.95632334 -5 13 C-5.99 13 -6.98 13 -8 13 C-8 14.98 -8 16.96 -8 19 C-8.66 19 -9.32 19 -10 19 C-10 19.66 -10 20.32 -10 21 C-8.68 21 -7.36 21 -6 21 C-6 21.66 -6 22.32 -6 23 C-8.64 22.67 -11.28 22.34 -14 22 C-12.33333333 18.66666667 -10.66666667 15.33333333 -9 12 C-8.34 12 -7.68 12 -7 12 C-6.773125 11.319375 -6.54625 10.63875 -6.3125 9.9375 C-4.64427643 6.20385676 -2.44270392 3.27836579 0 0 Z " fill="#627F86" transform="translate(249,316)"/>
<path d="M0 0 C0.66 0.33 1.32 0.66 2 1 C2 10.9 2 20.8 2 31 C0.68 30.34 -0.64 29.68 -2 29 C-1.34 27.02 -0.68 25.04 0 23 C-0.66 23 -1.32 23 -2 23 C-1.505 21.515 -1.505 21.515 -1 20 C-0.8535286 18.44733347 -0.75305926 16.89004338 -0.68359375 15.33203125 C-0.64169922 14.43935547 -0.59980469 13.54667969 -0.55664062 12.62695312 C-0.51732422 11.69818359 -0.47800781 10.76941406 -0.4375 9.8125 C-0.37272461 8.40194336 -0.37272461 8.40194336 -0.30664062 6.96289062 C-0.20061335 4.64207146 -0.09854971 2.32114675 0 0 Z " fill="#153D46" transform="translate(147,247)"/>
<path d="M0 0 C0 1.32 0 2.64 0 4 C-0.99 4.33 -1.98 4.66 -3 5 C-3.73323796 7.01508358 -3.73323796 7.01508358 -4 9 C-4.66 9 -5.32 9 -6 9 C-7.63676257 10.9600281 -7.63676257 10.9600281 -9 13 C-9.66 12.67 -10.32 12.34 -11 12 C-11 10.02 -11 8.04 -11 6 C-10.34 6 -9.68 6 -9 6 C-8.7525 5.38125 -8.505 4.7625 -8.25 4.125 C-6.18429402 0.61329983 -3.97005001 0 0 0 Z " fill="#124654" transform="translate(242,297)"/>
<path d="M0 0 C0.33 0 0.66 0 1 0 C2.3483218 3.72254061 3.10517755 7.02715719 3 11 C0.85298462 15.43139904 -1.89958165 19.18768301 -5 23 C-6.33459401 18.99621796 -5.00270481 16.42101645 -3.625 12.625 C-2.14235793 8.45405087 -0.72757108 4.38234675 0 0 Z " fill="#A7D551" transform="translate(220,303)"/>
<path d="M0 0 C0.33 0 0.66 0 1 0 C0.47650497 6.6198928 -0.84725064 12.31765553 -3.0625 18.5625 C-3.34416016 19.38041016 -3.62582031 20.19832031 -3.91601562 21.04101562 C-4.60235441 23.03023483 -5.2999845 25.0155524 -6 27 C-6.66 27 -7.32 27 -8 27 C-7.25 20.375 -7.25 20.375 -5 17 C-4.61500109 15.34450469 -4.27206865 13.6777567 -4 12 C-3.34 12 -2.68 12 -2 12 C-2.33 9.03 -2.66 6.06 -3 3 C-2.34 3 -1.68 3 -1 3 C-0.67 2.01 -0.34 1.02 0 0 Z " fill="#486D75" transform="translate(367,280)"/>
<path d="M0 0 C1.33142796 2.66285592 0.71741358 3.64592557 -0.109375 6.47265625 C-0.36976563 7.37306641 -0.63015625 8.27347656 -0.8984375 9.20117188 C-1.31996094 10.6175293 -1.31996094 10.6175293 -1.75 12.0625 C-2.01554688 12.97966797 -2.28109375 13.89683594 -2.5546875 14.84179688 C-4.23818881 20.60738023 -6.05581808 26.3172088 -8 32 C-8.94030767 28.57194922 -9.07576732 25.56106419 -9 22 C-9 21.01 -9 20.02 -9 19 C-8.34 19.33 -7.68 19.66 -7 20 C-6.74605469 19.14277344 -6.49210938 18.28554688 -6.23046875 17.40234375 C-4.43618716 11.44156558 -2.62671943 5.64744678 0 0 Z " fill="#28553A" transform="translate(227,278)"/>
<path d="M0 0 C0.99 0.33 1.98 0.66 3 1 C-0.63 5.95 -4.26 10.9 -8 16 C-9.33332095 13.3333581 -8.67102033 11.83319697 -8 9 C-8.66 8.67 -9.32 8.34 -10 8 C-8.35 7.01 -6.7 6.02 -5 5 C-4.67 5.33 -4.34 5.66 -4 6 C-3.67 5.01 -3.34 4.02 -3 3 C-2.01 3 -1.02 3 0 3 C0 2.01 0 1.02 0 0 Z " fill="#B4DB47" transform="translate(276,235)"/>
<path d="M0 0 C0.66 0.33 1.32 0.66 2 1 C2 1.66 2 2.32 2 3 C1.01 3.495 1.01 3.495 0 4 C-0.433125 5.4540625 -0.433125 5.4540625 -0.875 6.9375 C-2 10 -2 10 -4.0625 11.25 C-4.701875 11.4975 -5.34125 11.745 -6 12 C-6.33 12.66 -6.66 13.32 -7 14 C-7.99 14 -8.98 14 -10 14 C-10 14.66 -10 15.32 -10 16 C-10.66 15.67 -11.32 15.34 -12 15 C-10.38012331 12.68375565 -8.75444257 10.37199918 -7.125 8.0625 C-6.66480469 7.40314453 -6.20460938 6.74378906 -5.73046875 6.06445312 C-2.2265625 1.11328125 -2.2265625 1.11328125 0 0 Z " fill="#1E4D44" transform="translate(283,231)"/>
<path d="M0 0 C1.25205243 2.50410487 0.95815898 3.80064009 0.66015625 6.5703125 C0.56669922 7.46621094 0.47324219 8.36210937 0.37695312 9.28515625 C0.27318359 10.22230469 0.16941406 11.15945313 0.0625 12.125 C-0.08735352 13.54232422 -0.08735352 13.54232422 -0.24023438 14.98828125 C-0.48818915 17.32614055 -0.74166315 19.6632689 -1 22 C-1.66 22 -2.32 22 -3 22 C-3 16.06 -3 10.12 -3 4 C-2.34 4 -1.68 4 -1 4 C-0.67 2.68 -0.34 1.36 0 0 Z " fill="#4A6971" transform="translate(132,245)"/>
<path d="M0 0 C0.33 0.99 0.66 1.98 1 3 C1.66 3 2.32 3 3 3 C4.125 10.625 4.125 10.625 3 14 C-2.75 12.25 -2.75 12.25 -5 10 C-3.02 10 -1.04 10 1 10 C1.33 9.01 1.66 8.02 2 7 C0.35 6.67 -1.3 6.34 -3 6 C-2.01 4.02 -1.02 2.04 0 0 Z " fill="#335E63" transform="translate(218,320)"/>
<path d="M0 0 C0.33 0 0.66 0 1 0 C1.03758423 1.24704712 1.03758423 1.24704712 1.07592773 2.51928711 C1.17185531 5.64487302 1.27103303 8.7703353 1.37231445 11.89575195 C1.43621405 13.89722123 1.49646484 15.89880593 1.55664062 17.90039062 C1.7777564 24.65292633 2.12475619 31.2996041 3 38 C2.67 36.68 2.34 35.36 2 34 C1.34 34 0.68 34 0 34 C-1.19583104 30.41250689 -1.01782444 27.707443 -0.87890625 23.92578125 C-0.85529526 23.2419487 -0.83168427 22.55811615 -0.80735779 21.8535614 C-0.7308855 19.67298774 -0.64679119 17.49278405 -0.5625 15.3125 C-0.50926281 13.8327003 -0.45652252 12.35288262 -0.40429688 10.87304688 C-0.27529303 7.24847183 -0.13945273 3.62418977 0 0 Z " fill="#9BB2B7" transform="translate(149,247)"/>
<path d="M0 0 C0.33 0 0.66 0 1 0 C0.04090909 16.78409091 0.04090909 16.78409091 -4 24 C-4.66 24 -5.32 24 -6 24 C-4.56933303 15.8301386 -2.35862583 7.94605012 0 0 Z " fill="#9BC456" transform="translate(231,266)"/>
<path d="M0 0 C0.33 0 0.66 0 1 0 C1.02479481 4.46573511 1.04290486 8.9314333 1.05493164 13.3972168 C1.05994766 14.91512755 1.06676203 16.4330335 1.07543945 17.95092773 C1.08762497 20.13787016 1.09325572 22.32474846 1.09765625 24.51171875 C1.10289307 25.82615967 1.10812988 27.14060059 1.11352539 28.49487305 C1.01677552 31.48205125 0.70343764 34.10592611 0 37 C-0.66 37 -1.32 37 -2 37 C-2.12525265 30.6121147 -2.12525265 30.6121147 -1.51586914 27.6340332 C-0.9491438 24.74032771 -0.78935499 21.98917464 -0.68359375 19.04296875 C-0.62075195 17.37524414 -0.62075195 17.37524414 -0.55664062 15.67382812 C-0.51732422 14.52333984 -0.47800781 13.37285156 -0.4375 12.1875 C-0.39431641 11.01767578 -0.35113281 9.84785156 -0.30664062 8.64257812 C-0.20081721 5.76182969 -0.09873175 2.88099877 0 0 Z " fill="#56727E" transform="translate(350,245)"/>
<path d="M0 0 C0.66 0.33 1.32 0.66 2 1 C2 1.99 2 2.98 2 4 C1.4225 4.0825 0.845 4.165 0.25 4.25 C-2.6159304 5.20531013 -3.9990764 6.78469173 -6 9 C-6.99 8.67 -7.98 8.34 -9 8 C-9.66 9.32 -10.32 10.64 -11 12 C-12.98 12 -14.96 12 -17 12 C-15.5399175 9.07983501 -13.11134186 8.57168943 -10.27734375 7.21875 C-6.54963287 5.22381725 -3.29708826 2.63065553 0 0 Z " fill="#4D6E76" transform="translate(311,338)"/>
<path d="M0 0 C0.66 1.32 1.32 2.64 2 4 C0.02170928 5.97829072 -3.82327027 5.25503932 -6.53515625 5.31640625 C-7.28840683 5.33718735 -8.04165741 5.35796844 -8.81773376 5.37937927 C-11.2325599 5.44495425 -13.64749798 5.50379621 -16.0625 5.5625 C-17.69597529 5.6056777 -19.3294391 5.64929173 -20.96289062 5.69335938 C-24.97514464 5.80064362 -28.98751164 5.90188821 -33 6 C-33 5.34 -33 4.68 -33 4 C-22.11 3.67 -11.22 3.34 0 3 C0 2.01 0 1.02 0 0 Z " fill="#899FA5" transform="translate(288,282)"/>
<path d="M0 0 C2.5363613 1.01454452 3.79351461 1.6853556 5.3125 4 C5.539375 4.66 5.76625 5.32 6 6 C5.67 6.66 5.34 7.32 5 8 C4.77721336 9.36972529 4.5931895 10.74603588 4.4375 12.125 C4.293125 13.40375 4.14875 14.6825 4 16 C1.19958943 10.99926683 -0.34821126 5.74548584 0 0 Z " fill="#395E69" transform="translate(297,267)"/>
<path d="M0 0 C0.33 0.66 0.66 1.32 1 2 C0.54625 2.53625 0.0925 3.0725 -0.375 3.625 C-2.15981279 5.96941295 -2.15981279 5.96941295 -2.875 9 C-4.22906681 12.61084484 -5.91617477 13.78597163 -9 16 C-9.33 16.66 -9.66 17.32 -10 18 C-10.66 18 -11.32 18 -12 18 C-10.18633597 13.87235084 -7.50853382 10.37940795 -4.875 6.75 C-4.17310547 5.77546875 -4.17310547 5.77546875 -3.45703125 4.78125 C-2.30725718 3.18564517 -1.15397434 1.59256975 0 0 Z " fill="#235138" transform="translate(261,260)"/>
<path d="M0 0 C0.99 0.33 1.98 0.66 3 1 C1.7260411 3.03833424 0.38938077 5.03852126 -1 7 C-1.66 7 -2.32 7 -3 7 C-3.103125 7.598125 -3.20625 8.19625 -3.3125 8.8125 C-4.08876455 11.28243264 -5.07088921 12.32251235 -7 14 C-7.33 12.35 -7.66 10.7 -8 9 C-7.01 9 -6.02 9 -5 9 C-4.731875 7.88625 -4.46375 6.7725 -4.1875 5.625 C-3 2 -3 2 0 0 Z " fill="#537278" transform="translate(350,322)"/>
<path d="M0 0 C4.21814817 3.9700218 7.61227103 8.30840284 11 13 C10.67 13.66 10.34 14.32 10 15 C8.68 14.67 7.36 14.34 6 14 C5.34 11.36 4.68 8.72 4 6 C2.68 5.67 1.36 5.34 0 5 C-0.33 4.34 -0.66 3.68 -1 3 C-0.67 2.01 -0.34 1.02 0 0 Z " fill="#446970" transform="translate(283,173)"/>
<path d="M0 0 C0.66 0.33 1.32 0.66 2 1 C2.10655578 7.44070471 1.96205088 13.62641289 1 20 C0.34 19.67 -0.32 19.34 -1 19 C-1 15.04 -1 11.08 -1 7 C-0.34 7 0.32 7 1 7 C0.67 4.69 0.34 2.38 0 0 Z " fill="#14424C" transform="translate(174,245)"/>
<path d="M0 0 C0.99 0.33 1.98 0.66 3 1 C3 1.99 3 2.98 3 4 C3.66 4.33 4.32 4.66 5 5 C4.625 7.9375 4.625 7.9375 4 11 C3.01 11.495 3.01 11.495 2 12 C1.67 10.35 1.34 8.7 1 7 C0.34 7 -0.32 7 -1 7 C-1.625 5.1875 -1.625 5.1875 -2 3 C-1.34 2.01 -0.68 1.02 0 0 Z " fill="#285866" transform="translate(282,236)"/>
<path d="M0 0 C0.66 0.33 1.32 0.66 2 1 C1.06385433 2.72990025 0.12602042 4.45888696 -0.8125 6.1875 C-1.33457031 7.15042969 -1.85664063 8.11335937 -2.39453125 9.10546875 C-3.87463866 11.77398357 -5.41337509 14.39374227 -7 17 C-8.31223496 13.06329512 -7.24296256 10.87511856 -6 7 C-5.34 7 -4.68 7 -4 7 C-3.34 5.35 -2.68 3.7 -2 2 C-1.34 2 -0.68 2 0 2 C0 1.34 0 0.68 0 0 Z " fill="#A9D551" transform="translate(271,189)"/>
<path d="M0 0 C10.56 0 21.12 0 32 0 C31.34 1.65 30.68 3.3 30 5 C29.67 3.68 29.34 2.36 29 1 C19.43 1 9.86 1 0 1 C0 0.67 0 0.34 0 0 Z " fill="#A7D15E" transform="translate(250,230)"/>
<path d="M0 0 C3.84132871 6.96436018 3.14561978 15.24979175 3 23 C0.6057308 19.98141868 -0.58014185 17.88368786 -1 14 C-0.67 13.67 -0.34 13.34 0 13 C0.07258946 10.81360547 0.08373783 8.62499611 0.0625 6.4375 C0.05347656 5.23996094 0.04445313 4.04242188 0.03515625 2.80859375 C0.02355469 1.88175781 0.01195312 0.95492187 0 0 Z " fill="#608086" transform="translate(325,244)"/>
<path d="M0 0 C0.99 0.495 0.99 0.495 2 1 C2 1.66 2 2.32 2 3 C2.66 3 3.32 3 4 3 C5.7265625 4.75 5.7265625 4.75 7.625 7 C8.25664062 7.7425 8.88828125 8.485 9.5390625 9.25 C10.02117187 9.8275 10.50328125 10.405 11 11 C10.01 11.66 9.02 12.32 8 13 C7.54625 12.525625 7.0925 12.05125 6.625 11.5625 C5.06741796 9.90972192 5.06741796 9.90972192 3 9 C2.1484375 6.93359375 2.1484375 6.93359375 1.375 4.4375 C1.11460937 3.61121094 0.85421875 2.78492188 0.5859375 1.93359375 C0.39257812 1.29550781 0.19921875 0.65742188 0 0 Z " fill="#5B7A84" transform="translate(170,321)"/>
<path d="M0 0 C0.99 0 1.98 0 3 0 C1.40956621 5.08938811 -1.7446951 8.87456643 -5 13 C-5.97918775 9.92443042 -6.1498998 9.31407577 -4.6875 6.25 C-4.130625 5.5075 -3.57375 4.765 -3 4 C-2.34 4 -1.68 4 -1 4 C-0.67 2.68 -0.34 1.36 0 0 Z " fill="#55767F" transform="translate(249,292)"/>
<path d="M0 0 C0.99 0.33 1.98 0.66 3 1 C3.16930395 2.89559964 3.33532864 4.79149231 3.5 6.6875 C3.5928125 7.74324219 3.685625 8.79898437 3.78125 9.88671875 C3.9723415 12.60636025 4.04043935 15.27539856 4 18 C1.03343051 12.50312124 -0.4036063 6.25589769 0 0 Z " fill="#53717D" transform="translate(131,278)"/>
<path d="M0 0 C0.33 0 0.66 0 1 0 C1.35482211 7.21471629 0.1591338 13.12418702 -2 20 C-2.33 20 -2.66 20 -3 20 C-3.10251672 14.87416389 -3.03590199 10.05002222 -2 5 C-1.67 5 -1.34 5 -1 5 C-0.67 3.35 -0.34 1.7 0 0 Z " fill="#4E6C75" transform="translate(326,267)"/>
<path d="M0 0 C0.66 0 1.32 0 2 0 C2 0.66 2 1.32 2 2 C2.66 2.33 3.32 2.66 4 3 C1.53846154 7.8 1.53846154 7.8 -1.1875 8.8125 C-1.785625 8.874375 -2.38375 8.93625 -3 9 C-3.33 6.69 -3.66 4.38 -4 2 C-3.34 2.66 -2.68 3.32 -2 4 C-1.34 3.67 -0.68 3.34 0 3 C0 2.01 0 1.02 0 0 Z " fill="#5E7981" transform="translate(311,302)"/>
<path d="M0 0 C-0.33 4.62 -0.66 9.24 -1 14 C-3.29013653 10.5647952 -3.17842973 9.014669 -3 5 C-4.32 4.67 -5.64 4.34 -7 4 C-6.01 4 -5.02 4 -4 4 C-3.67 3.01 -3.34 2.02 -3 1 C-1 0 -1 0 0 0 Z " fill="#123E4A" transform="translate(327,261)"/>
<path d="M0 0 C0.33 1.32 0.66 2.64 1 4 C0.34 4 -0.32 4 -1 4 C-1.103125 4.7425 -1.20625 5.485 -1.3125 6.25 C-2.04253504 9.17014018 -3.06789398 10.73187554 -5 13 C-5.99 12.67 -6.98 12.34 -8 12 C-5.36 8.04 -2.72 4.08 0 0 Z " fill="#26543B" transform="translate(270,247)"/>
<path d="M0 0 C1.65 0 3.3 0 5 0 C3.68 4.62 2.36 9.24 1 14 C0.14778004 10.59112017 -0.10783755 8.19565369 -0.0625 4.75 C-0.05347656 3.85796875 -0.04445312 2.9659375 -0.03515625 2.046875 C-0.02355469 1.37140625 -0.01195312 0.6959375 0 0 Z " fill="#244F3F" transform="translate(224,178)"/>
<path d="M0 0 C0 0.66 0 1.32 0 2 C2.475 2.99 2.475 2.99 5 4 C5 4.66 5 5.32 5 6 C0.6109185 5.48964169 -2.33708062 4.47785723 -6 2 C-3 0 -3 0 0 0 Z " fill="#335862" transform="translate(193,361)"/>
<path d="M0 0 C1.485 0.99 1.485 0.99 3 2 C2.67 3.98 2.34 5.96 2 8 C2.99 8 3.98 8 5 8 C3.92598892 10.91517292 3.22189824 12.77810176 1 15 C0.67 13.68 0.34 12.36 0 11 C0.66 11 1.32 11 2 11 C1.34 10.67 0.68 10.34 0 10 C0 6.7 0 3.4 0 0 Z " fill="#3E6871" transform="translate(314,289)"/>
<path d="M0 0 C1 3 1 3 1 5 C0.34 5 -0.32 5 -1 5 C-0.67 6.32 -0.34 7.64 0 9 C-3.75 12 -3.75 12 -6 12 C-4.43358249 7.69235185 -2.31663844 3.93828536 0 0 Z " fill="#51747B" transform="translate(189,210)"/>
<path d="M0 0 C1.5 1.0625 1.5 1.0625 3 3 C3.1875 6.6875 3.1875 6.6875 3 10 C2.34 10 1.68 10 1 10 C1 10.66 1 11.32 1 12 C0.34 12 -0.32 12 -1 12 C-1 9.69 -1 7.38 -1 5 C-1.66 4.67 -2.32 4.34 -3 4 C-2.01 4 -1.02 4 0 4 C0 2.68 0 1.36 0 0 Z " fill="#245257" transform="translate(280,169)"/>
<path d="M0 0 C0.99 0 1.98 0 3 0 C3 0.66 3 1.32 3 2 C3.99 1.67 4.98 1.34 6 1 C6.33 2.98 6.66 4.96 7 7 C7.66 7 8.32 7 9 7 C9.33 7.99 9.66 8.98 10 10 C9.34 10 8.68 10 8 10 C8 9.34 8 8.68 8 8 C5.525 7.01 5.525 7.01 3 6 C3 5.34 3 4.68 3 4 C2.01 3.67 1.02 3.34 0 3 C0 2.01 0 1.02 0 0 Z " fill="#43606D" transform="translate(169,347)"/>
<path d="M0 0 C0.66 0 1.32 0 2 0 C2 0.66 2 1.32 2 2 C2.66 2.33 3.32 2.66 4 3 C4 6 4 6 3 8 C2.01 8.33 1.02 8.66 0 9 C-0.84454356 5.62182575 -1.10844919 3.32534757 0 0 Z " fill="#124654" transform="translate(244,286)"/>
<path d="M0 0 C0.66 0.66 1.32 1.32 2 2 C-5.75 3.125 -5.75 3.125 -8 2 C-8.33 2.99 -8.66 3.98 -9 5 C-9.99 4.67 -10.98 4.34 -12 4 C-8.05642184 -0.21554907 -5.70914747 -1.61027236 0 0 Z " fill="#4C6E75" transform="translate(316,158)"/>
<path d="M0 0 C0.66 0.33 1.32 0.66 2 1 C2 1.99 2 2.98 2 4 C1.34 4 0.68 4 0 4 C0 4.66 0 5.32 0 6 C1.32 6 2.64 6 4 6 C4 6.66 4 7.32 4 8 C1.36 7.67 -1.28 7.34 -4 7 C-2.79618552 4.50638429 -1.54571278 2.31856917 0 0 Z " fill="#476B70" transform="translate(239,331)"/>
<path d="M0 0 C1.12383849 3.37151546 1.16190374 4.68027502 0 8 C-2.5 9.6875 -2.5 9.6875 -5 11 C-5.33 11.66 -5.66 12.32 -6 13 C-6.66 13 -7.32 13 -8 13 C-6.53181332 9.89257577 -4.79975 7.09528261 -2.875 4.25 C-2.33617187 3.45078125 -1.79734375 2.6515625 -1.2421875 1.828125 C-0.62730469 0.92320312 -0.62730469 0.92320312 0 0 Z " fill="#285536" transform="translate(239,290)"/>
<path d="M0 0 C1.65 0 3.3 0 5 0 C4.375 6.625 4.375 6.625 1 10 C0.67 6.7 0.34 3.4 0 0 Z M1 1 C2 3 2 3 2 3 Z " fill="#B1DB46" transform="translate(272,179)"/>
<path d="M0 0 C1.27079593 2.54159187 0.71020908 3.31698792 0 6 C0 7.32 0 8.64 0 10 C-0.66 10 -1.32 10 -2 10 C-2 9.34 -2 8.68 -2 8 C-3.32 9.32 -4.64 10.64 -6 12 C-6.66 11.67 -7.32 11.34 -8 11 C-5.36 7.37 -2.72 3.74 0 0 Z " fill="#22503B" transform="translate(248,278)"/>
<path d="M0 0 C0.66 0.99 1.32 1.98 2 3 C-2 9.57142857 -2 9.57142857 -6 11 C-4.54955729 6.89041233 -2.48889248 3.56741255 0 0 Z " fill="#4D7177" transform="translate(196,199)"/>
<path d="M0 0 C2.00720923 0.28674418 4.0085944 0.61866701 6 1 C6.33 1.99 6.66 2.98 7 4 C6.34 4 5.68 4 5 4 C4.67 4.66 4.34 5.32 4 6 C4 5.34 4 4.68 4 4 C2.35 4 0.7 4 -1 4 C-1 1 -1 1 0 0 Z " fill="#123F4A" transform="translate(214,326)"/>
<path d="M0 0 C1 4 1 4 0.00390625 5.703125 C-1.33072917 7.13541667 -2.66536458 8.56770833 -4 10 C-5.32 9.67 -6.64 9.34 -8 9 C-5.36 6.03 -2.72 3.06 0 0 Z " fill="#5B7E85" transform="translate(329,320)"/>
<path d="M0 0 C0.33 1.32 0.66 2.64 1 4 C0.01 4.33 -0.98 4.66 -2 5 C-2.309375 5.99 -2.61875 6.98 -2.9375 8 C-3.288125 8.99 -3.63875 9.98 -4 11 C-6.06640625 11.6875 -6.06640625 11.6875 -8 12 C-6.85573734 10.186508 -5.70954608 8.37423275 -4.5625 6.5625 C-3.60537109 5.04849609 -3.60537109 5.04849609 -2.62890625 3.50390625 C-1 1 -1 1 0 0 Z " fill="#275138" transform="translate(230,303)"/>
<path d="M0 0 C1.79068573 2.6860286 2.66055791 4.6626589 3.625 7.6875 C3.88539063 8.49574219 4.14578125 9.30398438 4.4140625 10.13671875 C4.60742188 10.75160156 4.80078125 11.36648438 5 12 C4.01 11.67 3.02 11.34 2 11 C2.33 10.01 2.66 9.02 3 8 C2.360625 7.896875 1.72125 7.79375 1.0625 7.6875 C0.381875 7.460625 -0.29875 7.23375 -1 7 C-1.33 6.01 -1.66 5.02 -2 4 C-1.34 4 -0.68 4 0 4 C0 2.68 0 1.36 0 0 Z " fill="#436971" transform="translate(155,294)"/>
<path d="M0 0 C1.53166168 4.08443115 0.63081652 7.79455657 0 12 C-0.66 12 -1.32 12 -2 12 C-2 13.65 -2 15.3 -2 17 C-2.66 17 -3.32 17 -4 17 C-3.52294177 14.72872279 -3.04328294 12.45799168 -2.5625 10.1875 C-2.29566406 8.92292969 -2.02882812 7.65835938 -1.75390625 6.35546875 C-1 3 -1 3 0 0 Z " fill="#9BC454" transform="translate(223,195)"/>
<path d="M0 0 C2.97 0 5.94 0 9 0 C9 0.99 9 1.98 9 3 C6.36 3 3.72 3 1 3 C0.67 2.01 0.34 1.02 0 0 Z " fill="#103B47" transform="translate(247,361)"/>
<path d="M0 0 C0.66 0.66 1.32 1.32 2 2 C1.57469657 5.82773086 0.26430036 9.3756723 -1 13 C-1.66 13 -2.32 13 -3 13 C-2.25 6.375 -2.25 6.375 0 3 C0 2.01 0 1.02 0 0 Z " fill="#3A5E67" transform="translate(362,294)"/>
<path d="M0 0 C2.97246802 2.54782974 4.41535288 5.45340883 6 9 C6 9.66 6 10.32 6 11 C5.34 11 4.68 11 4 11 C4 10.01 4 9.02 4 8 C3.01 8.33 2.02 8.66 1 9 C1 8.34 1 7.68 1 7 C0.34 6.67 -0.32 6.34 -1 6 C-0.67 5.34 -0.34 4.68 0 4 C0 2.68 0 1.36 0 0 Z " fill="#5D7F84" transform="translate(313,216)"/>
<path d="M0 0 C0.99 0 1.98 0 3 0 C2.67 2.31 2.34 4.62 2 7 C0.02 7 -1.96 7 -4 7 C-2.68 4.69 -1.36 2.38 0 0 Z " fill="#12434E" transform="translate(277,169)"/>
<path d="M0 0 C0.33 0.66 0.66 1.32 1 2 C1.66 2 2.32 2 3 2 C4.38938077 3.96147874 5.7260411 5.96166576 7 8 C6.67 8.66 6.34 9.32 6 10 C2.5442399 8.84807997 1.80171463 8.08865366 0 5 C-0.1875 2.25 -0.1875 2.25 0 0 Z " fill="#4E6E74" transform="translate(264,147)"/>
<path d="M0 0 C2 1.8125 2 1.8125 4 4 C4 4.99 4 5.98 4 7 C4.66 7 5.32 7 6 7 C6.33 8.32 6.66 9.64 7 11 C5 11 5 11 2.9375 9.4375 C0.47130385 6.33486614 0.29957983 3.89453784 0 0 Z " fill="#5E7881" transform="translate(306,205)"/>
<path d="M0 0 C0.33 0.99 0.66 1.98 1 3 C0.67 3.66 0.34 4.32 0 5 C0.66 5.33 1.32 5.66 2 6 C0.35 6.66 -1.3 7.32 -3 8 C-3.33 6.35 -3.66 4.7 -4 3 C-2.68 2.01 -1.36 1.02 0 0 Z " fill="#305B67" transform="translate(305,360)"/>
<path d="M0 0 C0.33 0.66 0.66 1.32 1 2 C1.66 2 2.32 2 3 2 C1.50163895 5.11198065 -0.19933758 8.0534615 -2 11 C-3.13643966 7.59068103 -2.86747764 6.99664544 -1.5625 3.8125 C-1.13130859 2.73935547 -1.13130859 2.73935547 -0.69140625 1.64453125 C-0.46324219 1.10183594 -0.23507813 0.55914062 0 0 Z " fill="#92C36B" transform="translate(217,315)"/>
<path d="M0 0 C0.99 0.33 1.98 0.66 3 1 C4.25 7.625 4.25 7.625 2 11 C0.80712589 7.12315913 0 4.08378077 0 0 Z " fill="#52727B" transform="translate(304,293)"/>
<path d="M0 0 C1.32 0.33 2.64 0.66 4 1 C1.03 4.96 1.03 4.96 -2 9 C-3 6 -3 6 -3 4 C-2.01 4 -1.02 4 0 4 C0 2.68 0 1.36 0 0 Z " fill="#A9D251" transform="translate(252,267)"/>
<path d="M0 0 C1.11672285 3.35016854 0.92467164 3.92559562 -0.3125 7.0625 C-0.57675781 7.75472656 -0.84101563 8.44695312 -1.11328125 9.16015625 C-2 11 -2 11 -4 13 C-4.75 11.4375 -4.75 11.4375 -5 9 C-3.87516581 6.49974974 -2.46835567 4.3320943 -1 2 C-0.67 1.34 -0.34 0.68 0 0 Z " fill="#21503D" transform="translate(207,245)"/>
<path d="M0 0 C1.32 0.33 2.64 0.66 4 1 C4 1.66 4 2.32 4 3 C4.66 3 5.32 3 6 3 C6.33 4.98 6.66 6.96 7 9 C6.34 8.67 5.68 8.34 5 8 C5 7.34 5 6.68 5 6 C4.34 6 3.68 6 3 6 C2.01 4.02 1.02 2.04 0 0 Z " fill="#44666F" transform="translate(183,302)"/>
<path d="M0 0 C0.33 0.66 0.66 1.32 1 2 C0.06421005 4.35981813 -0.93347808 6.69631264 -2 9 C-2.33 8.34 -2.66 7.68 -3 7 C-3.66 6.67 -4.32 6.34 -5 6 C-4.1875 3.5625 -4.1875 3.5625 -3 1 C-2.01 0.67 -1.02 0.34 0 0 Z " fill="#4E6D76" transform="translate(322,288)"/>
<path d="M0 0 C1.98 0.99 1.98 0.99 4 2 C4 3.65 4 5.3 4 7 C4.99 7.33 5.98 7.66 7 8 C6.34 9.32 5.68 10.64 5 12 C3.35 8.04 1.7 4.08 0 0 Z " fill="#55737D" transform="translate(338,210)"/>
<path d="M0 0 C1 2 1 2 0.3125 5.0625 C-1 8 -1 8 -3.125 8.875 C-3.74375 8.91625 -4.3625 8.9575 -5 9 C-3.7508258 5.54074837 -2.32472205 2.85306797 0 0 Z " fill="#4C6E76" transform="translate(206,185)"/>
<path d="M0 0 C0.99 0.33 1.98 0.66 3 1 C2.67 2.32 2.34 3.64 2 5 C2.99 5.33 3.98 5.66 5 6 C4.01 6.99 3.02 7.98 2 9 C0.14223235 5.86501708 -0.20140476 3.62528568 0 0 Z " fill="#46666D" transform="translate(303,165)"/>
<path d="M0 0 C1.32 0.99 2.64 1.98 4 3 C1.525 4.485 1.525 4.485 -1 6 C-1 5.34 -1 4.68 -1 4 C-1.66 4 -2.32 4 -3 4 C-3 3.34 -3 2.68 -3 2 C-2.01 1.34 -1.02 0.68 0 0 Z " fill="#385F6B" transform="translate(316,334)"/>
<path d="M0 0 C1.98 0.99 1.98 0.99 4 2 C3.67 4.64 3.34 7.28 3 10 C0.70366176 6.55549263 0.45983515 4.06187717 0 0 Z " fill="#51747B" transform="translate(293,255)"/>
<path d="M0 0 C0 2.97 0 5.94 0 9 C-3 6 -3 6 -3.1875 3.3125 C-3.125625 2.549375 -3.06375 1.78625 -3 1 C-1 0 -1 0 0 0 Z " fill="#32535D" transform="translate(348,222)"/>
<path d="M0 0 C1.37871915 3.82977542 0.87113444 7.07989501 0 11 C-0.99 11.66 -1.98 12.32 -3 13 C-2.45144652 8.428721 -1.58255197 4.32564205 0 0 Z " fill="#A1CC53" transform="translate(217,216)"/>
<path d="M0 0 C0.75 1.75 0.75 1.75 1 4 C-0.8125 6.25 -0.8125 6.25 -3 8 C-3.66 8 -4.32 8 -5 8 C-3.62845496 5.04590299 -2.01136276 2.55991624 0 0 Z " fill="#5E7A81" transform="translate(212,177)"/>
<path d="M0 0 C0.66 1.32 1.32 2.64 2 4 C1.01 4.99 0.02 5.98 -1 7 C-1.99 6.67 -2.98 6.34 -4 6 C-2.68 4.02 -1.36 2.04 0 0 Z " fill="#40636F" transform="translate(249,316)"/>
<path d="M0 0 C1.32 0 2.64 0 4 0 C4 1.65 4 3.3 4 5 C2.02 4.34 0.04 3.68 -2 3 C-1.34 2.01 -0.68 1.02 0 0 Z " fill="#11424B" transform="translate(227,318)"/>
<path d="M0 0 C0.33 0 0.66 0 1 0 C1 2.97 1 5.94 1 9 C1.66 9.33 2.32 9.66 3 10 C1.35 9.67 -0.3 9.34 -2 9 C-1.34 6.03 -0.68 3.06 0 0 Z " fill="#A0CC4D" transform="translate(208,244)"/>
<path d="M0 0 C0.66 0.33 1.32 0.66 2 1 C1.29445932 4.66881155 -0.27735506 7.70450534 -2 11 C-2.95465783 8.83032311 -3.14401212 7.43671207 -2.3984375 5.17578125 C-1.64129615 3.4315257 -0.82390802 1.71372869 0 0 Z " fill="#A4D24C" transform="translate(259,208)"/>
<path d="M0 0 C1.125 1.75 1.125 1.75 2 4 C1.125 6.25 1.125 6.25 0 8 C-1.32 7.67 -2.64 7.34 -4 7 C-2.68 4.69 -1.36 2.38 0 0 Z " fill="#4C6B75" transform="translate(236,143)"/>
<path d="M0 0 C-1.47692308 4.67692308 -1.47692308 4.67692308 -4.125 6.3125 C-5.053125 6.6528125 -5.053125 6.6528125 -6 7 C-6 5.68 -6 4.36 -6 3 C-2.78571429 0 -2.78571429 0 0 0 Z " fill="#11424E" transform="translate(289,353)"/>
<path d="M0 0 C0.33 0.66 0.66 1.32 1 2 C2.32 1.67 3.64 1.34 5 1 C4.67 1.99 4.34 2.98 4 4 C1.9375 4.6875 1.9375 4.6875 0 5 C-0.99 3.68 -1.98 2.36 -3 1 C-2.01 0.67 -1.02 0.34 0 0 Z " fill="#335D66" transform="translate(162,338)"/>
<path d="M0 0 C0.33 0 0.66 0 1 0 C0.67 2.64 0.34 5.28 0 8 C-1.32 8.33 -2.64 8.66 -4 9 C-2.80100302 5.9168649 -1.52299523 2.93720508 0 0 Z " fill="#577780" transform="translate(340,302)"/>
<path d="M0 0 C0.66 0.66 1.32 1.32 2 2 C1.67 2.66 1.34 3.32 1 4 C1.66 4.33 2.32 4.66 3 5 C1.68 6.32 0.36 7.64 -1 9 C-2.0326802 6.21176345 -2.04509293 5.1322726 -1.0625 2.25 C-0.711875 1.5075 -0.36125 0.765 0 0 Z " fill="#416872" transform="translate(238,305)"/>
<path d="M0 0 C0.99 0.33 1.98 0.66 3 1 C2.19152271 2.16945792 1.37810888 3.33550461 0.5625 4.5 C0.11003906 5.1496875 -0.34242188 5.799375 -0.80859375 6.46875 C-1.20175781 6.9740625 -1.59492188 7.479375 -2 8 C-2.33 8 -2.66 8 -3 8 C-3 6.35 -3 4.7 -3 3 C-2.01 3 -1.02 3 0 3 C0 2.01 0 1.02 0 0 Z " fill="#A8D14F" transform="translate(276,235)"/>
<path d="M0 0 C2.66735273 2.48952921 4.55746343 4.63408134 6 8 C3.03 7.505 3.03 7.505 0 7 C0.33 6.01 0.66 5.02 1 4 C0.61067144 1.85744207 0.61067144 1.85744207 0 0 Z " fill="#668189" transform="translate(300,196)"/>
<path d="M0 0 C4.875 4.625 4.875 4.625 6 8 C5.34 8 4.68 8 4 8 C4 7.34 4 6.68 4 6 C3.360625 5.87625 2.72125 5.7525 2.0625 5.625 C1.381875 5.41875 0.70125 5.2125 0 5 C-0.33 4.34 -0.66 3.68 -1 3 C-0.67 2.01 -0.34 1.02 0 0 Z " fill="#587783" transform="translate(283,173)"/>
<path d="M0 0 C1.98 0 3.96 0 6 0 C6 1.98 6 3.96 6 6 C3.97945196 4.35830472 1.97956942 2.69088222 0 1 C0 0.67 0 0.34 0 0 Z " fill="#5A7D83" transform="translate(192,314)"/>
<path d="M0 0 C0.99 0 1.98 0 3 0 C3 1.65 3 3.3 3 5 C2.01 5.495 2.01 5.495 1 6 C1 5.34 1 4.68 1 4 C0.01 3.67 -0.98 3.34 -2 3 C-1.34 2.01 -0.68 1.02 0 0 Z " fill="#114A4D" transform="translate(226,262)"/>
<path d="M0 0 C0 2.62113708 -0.31292445 4.50935112 -1 7 C-1.99 7 -2.98 7 -4 7 C-4 7.66 -4 8.32 -4 9 C-4.66 8.67 -5.32 8.34 -6 8 C-4.02 5.36 -2.04 2.72 0 0 Z " fill="#2C5B34" transform="translate(277,238)"/>
<path d="M0 0 C1.5625 1.1875 1.5625 1.1875 3 3 C2.6875 5.6875 2.6875 5.6875 2 8 C-0.14720899 5.85279101 -0.5434221 4.92209857 -1 2 C-0.67 1.34 -0.34 0.68 0 0 Z " fill="#44676E" transform="translate(322,237)"/>
<path d="M0 0 C2.5654594 2.5654594 2.54046087 4.47686668 3 8 C2.01 7.67 1.02 7.34 0 7 C-0.38133299 5.0085944 -0.71325582 3.00720923 -1 1 C-0.67 0.67 -0.34 0.34 0 0 Z " fill="#3E636A" transform="translate(362,216)"/>
<path d="M0 0 C0.99 0 1.98 0 3 0 C1.515 5.445 1.515 5.445 0 11 C-1.04973814 6.80104745 -0.72795155 4.20594226 0 0 Z " fill="#2B5634" transform="translate(215,214)"/>
<path d="M0 0 C0.33 0.99 0.66 1.98 1 3 C1.66 3.33 2.32 3.66 3 4 C2.34 4.66 1.68 5.32 1 6 C0.34 5.67 -0.32 5.34 -1 5 C-1 5.99 -1 6.98 -1 8 C-1.66 8 -2.32 8 -3 8 C-1.125 2.25 -1.125 2.25 0 0 Z " fill="#627E87" transform="translate(246,125)"/>
<path d="M0 0 C3 1.1875 3 1.1875 5 3.1875 C1.28111761 2.68037967 -1.73454239 2.07141785 -5 0.1875 C-3 -0.8125 -3 -0.8125 0 0 Z " fill="#5A7A82" transform="translate(218,373.8125)"/>
<path d="M0 0 C0.66 0 1.32 0 2 0 C2 0.66 2 1.32 2 2 C2.66 2.33 3.32 2.66 4 3 C2.68 3.99 1.36 4.98 0 6 C-0.38218767 4.34385343 -0.71395102 2.67542976 -1 1 C-0.67 0.67 -0.34 0.34 0 0 Z " fill="#39616A" transform="translate(330,343)"/>
<path d="M0 0 C0.66 0.33 1.32 0.66 2 1 C0.35 2.98 -1.3 4.96 -3 7 C-3.66 6.34 -4.32 5.68 -5 5 C-4.67 4.34 -4.34 3.68 -4 3 C-3.01 3 -2.02 3 -1 3 C-0.67 2.01 -0.34 1.02 0 0 Z " fill="#103E48" transform="translate(245,326)"/>
<path d="M0 0 C1.875 0.1875 1.875 0.1875 4 1 C5.25 3.5625 5.25 3.5625 6 6 C5.01 6 4.02 6 3 6 C2.01 4.02 1.02 2.04 0 0 Z " fill="#4E6C77" transform="translate(146,321)"/>
<path d="M0 0 C0.99 0.33 1.98 0.66 3 1 C2.34 2.98 1.68 4.96 1 7 C0.67 6.34 0.34 5.68 0 5 C-0.66 5 -1.32 5 -2 5 C-2 4.01 -2 3.02 -2 2 C-1.34 2 -0.68 2 0 2 C0 1.34 0 0.68 0 0 Z " fill="#14464E" transform="translate(221,318)"/>
<path d="M0 0 C0.66 0.33 1.32 0.66 2 1 C1.34 2.98 0.68 4.96 0 7 C-0.99 6.67 -1.98 6.34 -3 6 C-2.67 5.01 -2.34 4.02 -2 3 C-1.34 3 -0.68 3 0 3 C0 2.01 0 1.02 0 0 Z " fill="#0F3E4B" transform="translate(253,312)"/>
<path d="M0 0 C0 3.69418201 -1.28179295 5.77836178 -3 9 C-3.66 7.68 -4.32 6.36 -5 5 C-4.01 5 -3.02 5 -2 5 C-2 3.68 -2 2.36 -2 1 C-1.34 0.67 -0.68 0.34 0 0 Z " fill="#698188" transform="translate(358,310)"/>
<path d="M0 0 C0.33 0 0.66 0 1 0 C1 2.97 1 5.94 1 9 C0.01 8.67 -0.98 8.34 -2 8 C-1.34 5.36 -0.68 2.72 0 0 Z " fill="#9DCC4F" transform="translate(224,290)"/>
<path d="M0 0 C0.33 0 0.66 0 1 0 C1.20140476 3.62528568 0.85776765 5.86501708 -1 9 C-1.66 9 -2.32 9 -3 9 C-2.25 2.25 -2.25 2.25 0 0 Z " fill="#AAD151" transform="translate(228,281)"/>
</svg>
